<?xml version="1.0" encoding="UTF-8" standalone="no"?>
<svg
   xmlns:dc="http://purl.org/dc/elements/1.1/"
   xmlns:cc="http://creativecommons.org/ns#"
   xmlns:rdf="http://www.w3.org/1999/02/22-rdf-syntax-ns#"
   xmlns:svg="http://www.w3.org/2000/svg"
   xmlns="http://www.w3.org/2000/svg"
   xmlns:sodipodi="http://sodipodi.sourceforge.net/DTD/sodipodi-0.dtd"
   xmlns:inkscape="http://www.inkscape.org/namespaces/inkscape"
   id="body_1"
   width="636"
   height="169"
   version="1.1"
   sodipodi:docname="logo-lg.svgz">
  <metadata
     id="metadata21">
    <rdf:RDF>
      <cc:Work
         rdf:about="">
        <dc:format>image/svg+xml</dc:format>
        <dc:type
           rdf:resource="http://purl.org/dc/dcmitype/StillImage" />
      </cc:Work>
    </rdf:RDF>
  </metadata>
  <defs
     id="defs19" />
  <sodipodi:namedview
     pagecolor="#ffffff"
     bordercolor="#666666"
     borderopacity="1"
     objecttolerance="10"
     gridtolerance="10"
     guidetolerance="10"
     inkscape:pageopacity="0"
     inkscape:pageshadow="2"
     inkscape:window-width="640"
     inkscape:window-height="480"
     id="namedview17" />
  <g
     transform="matrix(1 0 0 1 0 0)"
     id="g14">
    <g
       id="g2" />
    <path
       d="M60.6467 98.5816C 60.8149 99.607 60.7401 100.707 60.3662 101.807C 59.1698 105.181 55.4121 106.971 52.0096 105.778C 51.2992 105.517 50.6635 105.163 50.1027 104.715L50.1027 104.715L50.1027 104.697L50.084 104.715L45.5411 101.005L40.7552 97.1088C 40.5682 96.9224 40.3439 96.8106 40.1008 96.7173C 38.9978 96.3445 37.764 96.9224 37.3714 98.0223L37.3714 98.0223L37.3714 98.041L35.3149 103.839L14.0213 164.056L9.34751 164.056L33.165 96.7546C 33.1837 96.6987 33.2024 96.6241 33.2211 96.5682C 34.4175 93.1938 38.1752 91.3855 41.5777 92.5786C 42.3068 92.8396 42.9612 93.2497 43.5407 93.6972L43.5407 93.6972L48.0462 97.3698L50.2709 99.1782L52.8134 101.248C 53.0004 101.415 53.2247 101.546 53.4678 101.62C 54.5895 102.012 55.8047 101.434 56.1973 100.334C 56.3281 99.9612 56.3655 99.607 56.2907 99.2528L56.2907 99.2528L55.5616 93.2497L50.8318 54.752L50.0279 48.2084C 49.9157 47.444 49.3923 46.7542 48.6071 46.4746L48.6071 46.4746L48.5884 46.4746C 48.5884 46.4746 48.5884 46.4559 48.5697 46.4559C 47.8032 46.1949 46.9806 46.4 46.4011 46.922L46.4011 46.922L46.4011 46.9034L41.6525 51.5268L13.7782 78.5591L9.4036 82.7724L9.4223 82.7724C 9.14187 82.9961 8.93622 83.3131 8.80536 83.6673C 8.41276 84.7859 9.01101 85.9976 10.114 86.3891C 10.3757 86.4824 10.6188 86.5196 10.8618 86.501L10.8618 86.501L14.1521 86.4824L17.0312 86.4637L22.8453 86.4078C 23.5931 86.4078 24.3409 86.5196 25.07 86.7806C 28.4912 87.9738 30.2859 91.7397 29.0708 95.114C 29.0521 95.17 29.0334 95.2259 28.996 95.2818L28.996 95.2818L4.67376 164.056L0 164.056L22.864 99.4765L24.9205 93.6599L24.9205 93.6413C 25.3131 92.56 24.7335 91.3109 23.6118 90.938C 23.3688 90.8634 23.1257 90.8262 22.8827 90.8262L22.8827 90.8262L16.6947 90.8821L10.8057 90.9194C 10.0953 90.9194 9.36621 90.7889 8.6558 90.5279C 5.25331 89.3534 3.45858 85.6061 4.65506 82.1945C 5.02896 81.1318 5.6646 80.2183 6.44979 79.5099L6.44979 79.5099L43.3351 43.7713C 45.0737 42.1121 47.6349 41.4783 50.0466 42.3172L50.0466 42.3172L50.0653 42.3172C 50.0653 42.3358 50.084 42.3358 50.084 42.3358C 52.4769 43.1748 54.066 45.2814 54.3838 47.6491L54.3838 47.6491L60.6467 98.5816zM196.522 164.112L246.643 164.112L304.897 0.333265L254.608 0.333265L196.522 164.112zM396.97 164.093L446.624 164.093L472.554 91.982C 482.911 74.6254 503.7 78.5591 499.83 93.7345L499.83 93.7345L474.966 164.093L526.807 164.093L551.372 95.3005C 557.916 78.0184 585.08 76.9931 579.172 97.3698L579.172 97.3698L556.046 164.093L606.149 164.093L634.154 84.9536C 643.464 58.0518 610.505 22.0337 553.747 61.6686C 547.035 43.5849 519.03 32.1754 481.677 58.5552L481.677 58.5552L484.201 47.7982L437.613 47.7982L396.97 164.093zM346.064 47.705L299.083 47.705L271.396 125.092C 257.599 168.754 301.682 183.239 343.671 153.019L343.671 153.019L340.885 164.093L385.678 164.093L426.938 47.8169L379.042 47.8169L354.57 114.242C 348.868 130.48 317.03 139.577 321.891 114.745L321.891 114.745L346.064 47.705zM138.138 53.8758C 200.149 17.1492 231.257 67.1123 203.981 117.504C 169.246 187.341 104.206 170.786 101.308 151.117L101.308 151.117L95.9242 164.056L48.7379 164.056L106.506 0.0722656L156.795 0.0722656L138.138 53.8758zM155.243 116.255C 165.096 104.044 166.647 85.9417 157.113 79.7336C 149.018 74.4576 138.96 77.1422 130.136 85.4197C 127.556 87.806 125.163 90.6957 122.882 94.0141C 113.554 107.456 113.03 121.643 122.359 127.851C 130.977 133.537 145.915 127.739 155.243 116.255z"
       stroke="none"
       fill="#FFFFFF"
       fill-rule="nonzero"
       id="path4" />
    <g
       id="g6" />
    <path
       d="M1 -167L661 -167L661 328L1 328z"
       stroke="none"
       fill="none"
       id="path8" />
    <g
       id="g10" />
    <path
       d="M60.6467 98.5816C 60.8149 99.607 60.7401 100.707 60.3662 101.807C 59.1698 105.181 55.4121 106.971 52.0096 105.778C 51.2992 105.517 50.6635 105.163 50.1027 104.715L50.1027 104.715L50.1027 104.697L50.084 104.715L45.5411 101.005L40.7552 97.1088C 40.5682 96.9224 40.3439 96.8106 40.1008 96.7173C 38.9978 96.3445 37.764 96.9224 37.3714 98.0223L37.3714 98.0223L37.3714 98.041L35.3149 103.839L14.0213 164.056L9.34751 164.056L33.165 96.7546C 33.1837 96.6987 33.2024 96.6241 33.2211 96.5682C 34.4175 93.1938 38.1752 91.3855 41.5777 92.5786C 42.3068 92.8396 42.9612 93.2497 43.5407 93.6972L43.5407 93.6972L48.0462 97.3698L50.2709 99.1782L52.8134 101.248C 53.0004 101.415 53.2247 101.546 53.4678 101.62C 54.5895 102.012 55.8047 101.434 56.1973 100.334C 56.3281 99.9612 56.3655 99.607 56.2907 99.2528L56.2907 99.2528L55.5616 93.2497L50.8318 54.752L50.0279 48.2084C 49.9157 47.444 49.3923 46.7542 48.6071 46.4746L48.6071 46.4746L48.5884 46.4746C 48.5884 46.4746 48.5884 46.4559 48.5697 46.4559C 47.8032 46.1949 46.9806 46.4 46.4011 46.922L46.4011 46.922L46.4011 46.9034L41.6525 51.5268L13.7782 78.5591L9.4036 82.7724L9.4223 82.7724C 9.14187 82.9961 8.93622 83.3131 8.80536 83.6673C 8.41276 84.7859 9.01101 85.9976 10.114 86.3891C 10.3757 86.4824 10.6188 86.5196 10.8618 86.501L10.8618 86.501L14.1521 86.4824L17.0312 86.4637L22.8453 86.4078C 23.5931 86.4078 24.3409 86.5196 25.07 86.7806C 28.4912 87.9738 30.2859 91.7397 29.0708 95.114C 29.0521 95.17 29.0334 95.2259 28.996 95.2818L28.996 95.2818L4.67376 164.056L0 164.056L22.864 99.4765L24.9205 93.6599L24.9205 93.6413C 25.3131 92.56 24.7335 91.3109 23.6118 90.938C 23.3688 90.8634 23.1257 90.8262 22.8827 90.8262L22.8827 90.8262L16.6947 90.8821L10.8057 90.9194C 10.0953 90.9194 9.36621 90.7889 8.6558 90.5279C 5.25331 89.3534 3.45858 85.6061 4.65506 82.1945C 5.02896 81.1318 5.6646 80.2183 6.44979 79.5099L6.44979 79.5099L43.3351 43.7713C 45.0737 42.1121 47.6349 41.4783 50.0466 42.3172L50.0466 42.3172L50.0653 42.3172C 50.0653 42.3358 50.084 42.3358 50.084 42.3358C 52.4769 43.1748 54.066 45.2814 54.3838 47.6491L54.3838 47.6491L60.6467 98.5816zM196.522 164.112L246.643 164.112L304.897 0.333265L254.608 0.333265L196.522 164.112zM396.97 164.093L446.624 164.093L472.554 91.982C 482.911 74.6254 503.7 78.5591 499.83 93.7345L499.83 93.7345L474.966 164.093L526.807 164.093L551.372 95.3005C 557.916 78.0184 585.08 76.9931 579.172 97.3698L579.172 97.3698L556.046 164.093L606.149 164.093L634.154 84.9536C 643.464 58.0518 610.505 22.0337 553.747 61.6686C 547.035 43.5849 519.03 32.1754 481.677 58.5552L481.677 58.5552L484.201 47.7982L437.613 47.7982L396.97 164.093zM346.064 47.705L299.083 47.705L271.396 125.092C 257.599 168.754 301.682 183.239 343.671 153.019L343.671 153.019L340.885 164.093L385.678 164.093L426.938 47.8169L379.042 47.8169L354.57 114.242C 348.868 130.48 317.03 139.577 321.891 114.745L321.891 114.745L346.064 47.705zM138.138 53.8758C 200.149 17.1492 231.257 67.1123 203.981 117.504C 169.246 187.341 104.206 170.786 101.308 151.117L101.308 151.117L95.9242 164.056L48.7379 164.056L106.506 0.0722656L156.795 0.0722656L138.138 53.8758zM155.243 116.255C 165.096 104.044 166.647 85.9417 157.113 79.7336C 149.018 74.4576 138.96 77.1422 130.136 85.4197C 127.556 87.806 125.163 90.6957 122.882 94.0141C 113.554 107.456 113.03 121.643 122.359 127.851C 130.977 133.537 145.915 127.739 155.243 116.255z"
       stroke="none"
       fill="#FF671F"
       fill-rule="nonzero"
       id="path12" />
  </g>
</svg>
